<?xml version="1.0" encoding="UTF-8"?>
<svg id="Layer_1" data-name="Layer 1" xmlns="http://www.w3.org/2000/svg" viewBox="0 0 342.76 287.29">
  <defs>
    <!-- Deep blue and purple colors for concentric bands -->
    <linearGradient id="deepblue1"><stop stop-color="#0B1929"/></linearGradient>
    <linearGradient id="deeppurple1"><stop stop-color="#1A0B29"/></linearGradient>
    <linearGradient id="deepblue2"><stop stop-color="#1E3A8A"/></linearGradient>
    <linearGradient id="deeppurple2"><stop stop-color="#3B1E8A"/></linearGradient>
    <linearGradient id="deepblue3"><stop stop-color="#1D4ED8"/></linearGradient>
    <linearGradient id="deeppurple3"><stop stop-color="#7C3AED"/></linearGradient>
    <linearGradient id="deepblue4"><stop stop-color="#2563EB"/></linearGradient>
    
    <!-- Radial gradients for bands -->
    <radialGradient id="band1" cx="1028.28" cy="861.87" r="1100">
      <stop offset="0%" stop-color="#0B1929"/>
      <stop offset="100%" stop-color="#1A0B29"/>
    </radialGradient>
    
    <radialGradient id="band2" cx="1028.28" cy="861.87" r="1200">
      <stop offset="0%" stop-color="#1A0B29"/>
      <stop offset="100%" stop-color="#1E3A8A"/>
    </radialGradient>
    
    <radialGradient id="band3" cx="1028.28" cy="861.87" r="1300">
      <stop offset="0%" stop-color="#1E3A8A"/>
      <stop offset="100%" stop-color="#3B1E8A"/>
    </radialGradient>
    
    <radialGradient id="band4" cx="1028.28" cy="861.87" r="1400">
      <stop offset="0%" stop-color="#3B1E8A"/>
      <stop offset="100%" stop-color="#1D4ED8"/>
    </radialGradient>
    
    <radialGradient id="band5" cx="1028.28" cy="861.87" r="1500">
      <stop offset="0%" stop-color="#1D4ED8"/>
      <stop offset="100%" stop-color="#7C3AED"/>
    </radialGradient>
    
    <radialGradient id="band6" cx="1028.28" cy="861.87" r="1600">
      <stop offset="0%" stop-color="#7C3AED"/>
      <stop offset="100%" stop-color="#2563EB"/>
    </radialGradient>
    
    <radialGradient id="band7" cx="1028.28" cy="861.87" r="1700">
      <stop offset="0%" stop-color="#2563EB"/>
      <stop offset="100%" stop-color="#3B1E8A"/>
    </radialGradient>
    
    <!-- Glow filter -->
    <filter id="glow" x="-50%" y="-50%" width="200%" height="200%">
      <feGaussianBlur stdDeviation="2" result="coloredBlur"/>
      <feMerge> 
        <feMergeNode in="coloredBlur"/>
        <feMergeNode in="SourceGraphic"/>
      </feMerge>
    </filter>
    
    <style>
      .cls-1,.cls-2,.cls-3,.cls-4,.cls-5{filter:url(#glow);}
      .cls-2,.cls-3,.cls-4,.cls-5,.cls-6{stroke-miterlimit:10;filter:url(#glow);}
      .cls-2{stroke-width:4px;}
      .cls-3{stroke-width:3px;}
      .cls-4{stroke-width:5px;}
      .cls-5,.cls-6{stroke-width:2px;}
      .cls-6{fill:none;}
      
      /* Concentric circle bands (alternating blue/purple) */
      .band1{fill:url(#deepblue1);stroke:url(#deepblue1);}      /* Closest to center */
      .band2{fill:url(#deeppurple1);stroke:url(#deeppurple1);}
      .band3{fill:url(#deepblue2);stroke:url(#deepblue2);}
      .band4{fill:url(#deeppurple2);stroke:url(#deeppurple2);}
      .band5{fill:url(#deepblue3);stroke:url(#deepblue3);}
      .band6{fill:url(#deeppurple3);stroke:url(#deeppurple3);}
      .band7{fill:url(#deepblue4);stroke:url(#deepblue4);}      /* Farthest from center */
    </style>
  </defs>
  
  <!-- Vertices colored by concentric band (distance from center at 1028.28, 861.87) -->
  <!-- Band calculations: distance = sqrt((x-1028.28)² + (y-861.87)²) -->
  
  <!-- Band 7 (outermost, deepblue4): distance ~1000+ -->
  <circle class="cls-1 band7" cx="251.3" cy="284.79" r="2.5"/>
  <circle class="cls-2 band7" cx="267.76" cy="175.92" r="2.5"/>
  <circle class="cls-1 band7" cx="232.76" cy="127.09" r="2.5"/>
  <circle class="cls-1 band7" cx="27.78" cy="57.16" r="2.5"/>
  <circle class="cls-1 band7" cx="142.76" cy="119.26" r="2.5"/>
  <circle class="cls-1 band7" cx="270.26" cy="129.59" r="2.5"/>
  <circle class="cls-1 band7" cx="307.76" cy="124.59" r="2.5"/>
  <circle class="cls-2 band7" cx="4.5" cy="109.53" r="2.5"/>
  <circle class="cls-1 band7" cx="200.26" cy="209.68" r="2.5"/>
  <circle class="cls-3 band7" cx="167.76" cy="173.42" r="2.5"/>
  <circle class="cls-2 band7" cx="167.76" cy="214.68" r="2.5"/>
  
  <!-- Band 6 (deeppurple3): distance ~950-1000 -->
  <circle class="cls-4 band6" cx="235.26" cy="207.18" r="2.5"/>
  <circle class="cls-3 band6" cx="105.26" cy="119.26" r="2.5"/>
  <circle class="cls-1 band6" cx="135.26" cy="190.99" r="2.5"/>
  <circle class="cls-1 band6" cx="237.76" cy="284.79" r="2.5"/>
  <circle class="cls-5 band6" cx="312.76" cy="179.2" r="2.5"/>
  <circle class="cls-1 band6" cx="177.76" cy="72.76" r="2.5"/>
  <circle class="cls-2 band6" cx="190.26" cy="49.66" r="2.5"/>
  <circle class="cls-2 band6" cx="337.76" cy="181.7" r="2.5"/>
  <circle class="cls-1 band6" cx="222.76" cy="188.49" r="2.5"/>
  
  <!-- Band 5 (deepblue3): distance ~900-950 -->
  <circle class="cls-4 band5" cx="248.8" cy="24.88" r="2.5"/>
  <circle class="cls-1 band5" cx="182.76" cy="139.39" r="2.5"/>
  <circle class="cls-1 band5" cx="222.76" cy="217.18" r="2.5"/>
  <circle class="cls-4 band5" cx="102.76" cy="193.49" r="2.5"/>
  <circle class="cls-1 band5" cx="45.55" cy="134.39" r="2.5"/>
  <circle class="cls-2 band5" cx="122.76" cy="159.66" r="2.5"/>
  <circle class="cls-5 band5" cx="75.26" cy="119.26" r="2.5"/>
  
  <!-- Band 4 (deeppurple2): distance ~850-900 -->
  <circle class="cls-3 band4" cx="310.26" cy="217.18" r="2.5"/>
  <circle class="cls-3 band4" cx="56.82" cy="52.16" r="2.5"/>
  <circle class="cls-1 band4" cx="17.52" cy="157.16" r="2.5"/>
  <circle class="cls-4 band4" cx="43.05" cy="89.61" r="2.5"/>
  <circle class="cls-5 band4" cx="222.76" cy="149.66" r="2.5"/>
  <circle class="cls-4 band4" cx="320.26" cy="100.64" r="2.5"/>
  <circle class="cls-3 band4" cx="136.2" cy="87.11" r="2.5"/>
  
  <!-- Band 3 (deepblue2): distance ~800-850 -->
  <circle class="cls-1 band3" cx="72.76" cy="157.16" r="2.5"/>
  <circle class="cls-5 band3" cx="87.76" cy="222.18" r="2.5"/>
  <circle class="cls-1 band3" cx="202.76" cy="6.5" r="2.5"/>
  <circle class="cls-4 band3" cx="187.76" cy="107.03" r="2.5"/>
  <circle class="cls-5 band3" cx="270.26" cy="87.11" r="2.5"/>
  <circle class="cls-1 band3" cx="280.26" cy="219.68" r="2.5"/>
  <circle class="cls-1 band3" cx="97.76" cy="15.17" r="2.5"/>
  
  <!-- Band 2 (deeppurple1): distance ~750-800 -->
  <circle class="cls-3 band2" cx="43.05" cy="193.49" r="2.5"/>
  <circle class="cls-5 band2" cx="110.26" cy="42.34" r="2.5"/>
  <circle class="cls-1 band2" cx="237.76" cy="75.26" r="2.5"/>
  <circle class="cls-1 band2" cx="253.8" cy="212.18" r="2.5"/>
  <circle class="cls-1 band2" cx="82.76" cy="75.26" r="2.5"/>
  <circle class="cls-1 band2" cx="138.7" cy="224.68" r="2.5"/>
  
  <!-- Band 1 (deepblue1): distance ~700-750 -->
  <circle class="cls-3 band1" cx="145.26" cy="4" r="2.5"/>
  <circle class="cls-1 band1" cx="140.26" cy="45.56" r="2.5"/>
  <circle class="cls-1 band1" cx="340.26" cy="152.16" r="2.5"/>
  <circle class="cls-3 band1" cx="287.76" cy="144.39" r="2.5"/>
  <circle class="cls-1 band1" cx="290.26" cy="54.66" r="2.5"/>
  
  <!-- Lines with radial band gradients -->
  <line class="cls-6" x1="202.76" y1="6.5" x2="190.26" y2="49.66" stroke="url(#band3)" stroke-width="2" filter="url(#glow)"/>
  <line class="cls-6" x1="145.26" y1="4" x2="190.26" y2="49.66" stroke="url(#band1)" stroke-width="2" filter="url(#glow)"/>
  <line class="cls-6" x1="202.76" y1="6.5" x2="145.26" y2="4" stroke="url(#band2)" stroke-width="2" filter="url(#glow)"/>
  <line class="cls-6" x1="248.8" y1="24.88" x2="202.76" y2="6.5" stroke="url(#band4)" stroke-width="2" filter="url(#glow)"/>
  <line class="cls-6" x1="97.76" y1="15.17" x2="145.26" y2="4" stroke="url(#band2)" stroke-width="2" filter="url(#glow)"/>
  <line class="cls-6" x1="280.26" y1="219.68" x2="310.26" y2="217.18" stroke="url(#band6)" stroke-width="2" filter="url(#glow)"/>
  <line class="cls-6" x1="337.76" y1="181.7" x2="310.26" y2="217.18" stroke="url(#band7)" stroke-width="2" filter="url(#glow)"/>
  <line class="cls-6" x1="248.8" y1="24.88" x2="290.26" y2="54.66" stroke="url(#band5)" stroke-width="2" filter="url(#glow)"/>
  <line class="cls-6" x1="320.26" y1="100.64" x2="289.29" y2="53.96" stroke="url(#band4)" stroke-width="2" filter="url(#glow)"/>
  <line class="cls-6" x1="340.26" y1="152.16" x2="320.26" y2="100.64" stroke="url(#band1)" stroke-width="2" filter="url(#glow)"/>
  <line class="cls-6" x1="337.76" y1="181.7" x2="340.26" y2="152.16" stroke="url(#band6)" stroke-width="2" filter="url(#glow)"/>
  <line class="cls-6" x1="280.26" y1="219.68" x2="253.8" y2="212.18" stroke="url(#band5)" stroke-width="2" filter="url(#glow)"/>
  <line class="cls-6" x1="251.3" y1="284.79" x2="253.8" y2="211.11" stroke="url(#band6)" stroke-width="2" filter="url(#glow)"/>
  <line class="cls-6" x1="237.76" y1="284.79" x2="251.3" y2="284.79" stroke="url(#band7)" stroke-width="2" filter="url(#glow)"/>
  <line class="cls-6" x1="222.76" y1="217.18" x2="237.76" y2="285.73" stroke="url(#band6)" stroke-width="2" filter="url(#glow)"/>
  <line class="cls-6" x1="235.39" y1="207.83" x2="237.76" y2="284.79" stroke="url(#band6)" stroke-width="2" filter="url(#glow)"/>
  <line class="cls-6" x1="235.26" y1="207.18" x2="251.3" y2="284.79" stroke="url(#band6)" stroke-width="2" filter="url(#glow)"/>
  <line class="cls-6" x1="253.76" y1="212.18" x2="267.76" y2="175.92" stroke="url(#band7)" stroke-width="2" filter="url(#glow)"/>
  <line class="cls-6" x1="280.26" y1="219.68" x2="267.76" y2="175.92" stroke="url(#band5)" stroke-width="2" filter="url(#glow)"/>
  <line class="cls-6" x1="312.76" y1="179.2" x2="310.26" y2="217.18" stroke="url(#band4)" stroke-width="2" filter="url(#glow)"/>
  <line class="cls-6" x1="337.83" y1="180.91" x2="312.76" y2="179.2" stroke="url(#band6)" stroke-width="2" filter="url(#glow)"/>
  <line class="cls-6" x1="307.76" y1="124.59" x2="340.26" y2="152.16" stroke="url(#band1)" stroke-width="2" filter="url(#glow)"/>
  <line class="cls-6" x1="320.26" y1="100.64" x2="307.76" y2="124.59" stroke="url(#band4)" stroke-width="2" filter="url(#glow)"/>
  <line class="cls-6" x1="287.76" y1="144.39" x2="307.76" y2="124.59" stroke="url(#band1)" stroke-width="2" filter="url(#glow)"/>
  <line class="cls-6" x1="312.76" y1="179.2" x2="286.97" y2="144.39" stroke="url(#band4)" stroke-width="2" filter="url(#glow)"/>
  <line class="cls-6" x1="337.83" y1="180.91" x2="307.76" y2="124.59" stroke="url(#band3)" stroke-width="2" filter="url(#glow)"/>
  <line class="cls-6" x1="286.97" y1="144.39" x2="339.01" y2="181.7" stroke="url(#band5)" stroke-width="2" filter="url(#glow)"/>
  <line class="cls-6" x1="267.76" y1="175.92" x2="288.79" y2="143.36" stroke="url(#band7)" stroke-width="2" filter="url(#glow)"/>
  <line class="cls-6" x1="312.76" y1="179.2" x2="267.76" y2="175.92" stroke="url(#band6)" stroke-width="2" filter="url(#glow)"/>
  <line class="cls-6" x1="280.26" y1="220.55" x2="312.76" y2="179.2" stroke="url(#band5)" stroke-width="2" filter="url(#glow)"/>
  <line class="cls-6" x1="270.26" y1="87.11" x2="320.26" y2="100.64" stroke="url(#band3)" stroke-width="2" filter="url(#glow)"/>
  <line class="cls-6" x1="290.26" y1="54.66" x2="270.26" y2="87.11" stroke="url(#band1)" stroke-width="2" filter="url(#glow)"/>
  <line class="cls-6" x1="270.26" y1="129.59" x2="270.26" y2="87.11" stroke="url(#band7)" stroke-width="2" filter="url(#glow)"/>
  <line class="cls-6" x1="319.24" y1="100.64" x2="270.26" y2="129.59" stroke="url(#band4)" stroke-width="2" filter="url(#glow)"/>
  <line class="cls-6" x1="287.76" y1="144.39" x2="270.26" y2="129.59" stroke="url(#band1)" stroke-width="2" filter="url(#glow)"/>
  <line class="cls-6" x1="187.76" y1="107.03" x2="237.76" y2="75.26" stroke="url(#band3)" stroke-width="2" filter="url(#glow)"/>
  <line class="cls-6" x1="232.76" y1="127.09" x2="187.76" y2="107.03" stroke="url(#band7)" stroke-width="2" filter="url(#glow)"/>
  <line class="cls-6" x1="222.76" y1="149.66" x2="187.76" y2="107.03" stroke="url(#band4)" stroke-width="2" filter="url(#glow)"/>
  <line class="cls-6" x1="182.76" y1="139.39" x2="188.26" y2="107.64" stroke="url(#band5)" stroke-width="2" filter="url(#glow)"/>
  <line class="cls-6" x1="142.76" y1="119.26" x2="188.26" y2="107.64" stroke="url(#band7)" stroke-width="2" filter="url(#glow)"/>
  <line class="cls-6" x1="136.2" y1="87.11" x2="188.86" y2="107.03" stroke="url(#band4)" stroke-width="2" filter="url(#glow)"/>
  <line class="cls-6" x1="177.76" y1="72.76" x2="187.76" y2="107.77" stroke="url(#band6)" stroke-width="2" filter="url(#glow)"/>
  <line class="cls-6" x1="75.26" y1="119.26" x2="105.26" y2="119.26" stroke="url(#band5)" stroke-width="2" filter="url(#glow)"/>
  <line class="cls-6" x1="122.76" y1="159.66" x2="105.26" y2="119.26" stroke="url(#band5)" stroke-width="2" filter="url(#glow)"/>
  <line class="cls-6" x1="102.76" y1="192.58" x2="123.77" y2="159.66" stroke="url(#band5)" stroke-width="2" filter="url(#glow)"/>
  <line class="cls-6" x1="167.76" y1="173.42" x2="182.51" y2="140.23" stroke="url(#band7)" stroke-width="2" filter="url(#glow)"/>
  <line class="cls-6" x1="167.76" y1="214.68" x2="167.76" y2="173.42" stroke="url(#band7)" stroke-width="2" filter="url(#glow)"/>
  <line class="cls-6" x1="138.7" y1="224.68" x2="167.76" y2="214.68" stroke="url(#band2)" stroke-width="2" filter="url(#glow)"/>
  <line class="cls-6" x1="200.26" y1="209.68" x2="168.69" y2="214.68" stroke="url(#band7)" stroke-width="2" filter="url(#glow)"/>
  <line class="cls-6" x1="222.76" y1="217.18" x2="168.69" y2="214.68" stroke="url(#band5)" stroke-width="2" filter="url(#glow)"/>
  <line class="cls-6" x1="87.76" y1="222.18" x2="138.7" y2="224.68" stroke="url(#band3)" stroke-width="2" filter="url(#glow)"/>
  <line class="cls-6" x1="43.05" y1="193.49" x2="87.76" y2="222.18" stroke="url(#band2)" stroke-width="2" filter="url(#glow)"/>
  <line class="cls-6" x1="17.52" y1="157.16" x2="43.05" y2="193.49" stroke="url(#band4)" stroke-width="2" filter="url(#glow)"/>
  <line class="cls-6" x1="4.5" y1="109.53" x2="17.52" y2="157.16" stroke="url(#band7)" stroke-width="2" filter="url(#glow)"/>
  <line class="cls-6" x1="110.26" y1="42.34" x2="82.76" y2="74.51" stroke="url(#band2)" stroke-width="2" filter="url(#glow)"/>
  <line class="cls-6" x1="140.26" y1="45.56" x2="110.26" y2="42.34" stroke="url(#band1)" stroke-width="2" filter="url(#glow)"/>
  <line class="cls-6" x1="145.26" y1="4" x2="111.17" y2="42.34" stroke="url(#band1)" stroke-width="2" filter="url(#glow)"/>
  <line class="cls-6" x1="140.26" y1="45.56" x2="145.26" y2="4" stroke="url(#band1)" stroke-width="2" filter="url(#glow)"/>
  <line class="cls-6" x1="190.93" y1="49.66" x2="140.26" y2="45.56" stroke="url(#band6)" stroke-width="2" filter="url(#glow)"/>
  <line class="cls-6" x1="136.2" y1="87.11" x2="140.26" y2="45.56" stroke="url(#band4)" stroke-width="2" filter="url(#glow)"/>
  <line class="cls-6" x1="177.76" y1="72.76" x2="190.27" y2="49.6" stroke="url(#band6)" stroke-width="2" filter="url(#glow)"/>
  <line class="cls-6" x1="136.2" y1="87.11" x2="178.9" y2="72.76" stroke="url(#band4)" stroke-width="2" filter="url(#glow)"/>
  <line class="cls-6" x1="105.26" y1="119.26" x2="136.2" y2="87.11" stroke="url(#band6)" stroke-width="2" filter="url(#glow)"/>
  <line class="cls-6" x1="142.76" y1="119.26" x2="122.75" y2="159.64" stroke="url(#band7)" stroke-width="2" filter="url(#glow)"/>
  <line class="cls-6" x1="136.2" y1="87.11" x2="142.76" y2="119.26" stroke="url(#band4)" stroke-width="2" filter="url(#glow)"/>
  <line class="cls-6" x1="104.5" y1="119.26" x2="142.76" y2="119.26" stroke="url(#band6)" stroke-width="2" filter="url(#glow)"/>
  <line class="cls-6" x1="182.76" y1="139.39" x2="142.76" y2="119.26" stroke="url(#band5)" stroke-width="2" filter="url(#glow)"/>
  <line class="cls-6" x1="167.76" y1="173.42" x2="122.76" y2="160.38" stroke="url(#band7)" stroke-width="2" filter="url(#glow)"/>
  <line class="cls-6" x1="182.76" y1="139.39" x2="122.76" y2="159.66" stroke="url(#band5)" stroke-width="2" filter="url(#glow)"/>
  <line class="cls-6" x1="200.26" y1="209.68" x2="222.76" y2="188.49" stroke="url(#band7)" stroke-width="2" filter="url(#glow)"/>
  <line class="cls-6" x1="168.54" y1="173.42" x2="200.26" y2="209.68" stroke="url(#band7)" stroke-width="2" filter="url(#glow)"/>
  <line class="cls-6" x1="222.76" y1="149.66" x2="222.76" y2="188.49" stroke="url(#band4)" stroke-width="2" filter="url(#glow)"/>
  <line class="cls-6" x1="235.26" y1="207.18" x2="267.76" y2="175" stroke="url(#band6)" stroke-width="2" filter="url(#glow)"/>
  <line class="cls-6" x1="253.8" y1="212.18" x2="235.39" y2="207.83" stroke="url(#band2)" stroke-width="2" filter="url(#glow)"/>
  <line class="cls-6" x1="222.76" y1="217.18" x2="235.39" y2="207.83" stroke="url(#band5)" stroke-width="2" filter="url(#glow)"/>
  <line class="cls-6" x1="222.76" y1="188.49" x2="267.76" y2="176.12" stroke="url(#band6)" stroke-width="2" filter="url(#glow)"/>
  <line class="cls-6" x1="235.26" y1="206.65" x2="222.76" y2="189.25" stroke="url(#band6)" stroke-width="2" filter="url(#glow)"/>
  <line class="cls-6" x1="200.26" y1="210.01" x2="235.53" y2="207.18" stroke="url(#band7)" stroke-width="2" filter="url(#glow)"/>
  <line class="cls-6" x1="167.76" y1="174.08" x2="222.76" y2="149.66" stroke="url(#band7)" stroke-width="2" filter="url(#glow)"/>
  <line class="cls-6" x1="222.76" y1="188.49" x2="167.76" y2="173.44" stroke="url(#band6)" stroke-width="2" filter="url(#glow)"/>
  <line class="cls-6" x1="222.76" y1="149.52" x2="267.76" y2="176.12" stroke="url(#band4)" stroke-width="2" filter="url(#glow)"/>
  <line class="cls-6" x1="270.26" y1="129.59" x2="222.76" y2="148.91" stroke="url(#band7)" stroke-width="2" filter="url(#glow)"/>
  <line class="cls-6" x1="267.03" y1="176.12" x2="269.46" y2="129.91" stroke="url(#band7)" stroke-width="2" filter="url(#glow)"/>
  <line class="cls-6" x1="190.27" y1="49.6" x2="238.45" y2="75.26" stroke="url(#band6)" stroke-width="2" filter="url(#glow)"/>
  <line class="cls-6" x1="248.8" y1="24.88" x2="237.76" y2="76.5" stroke="url(#band5)" stroke-width="2" filter="url(#glow)"/>
  <line class="cls-6" x1="190.27" y1="49.6" x2="248.8" y2="24.88" stroke="url(#band6)" stroke-width="2" filter="url(#glow)"/>
  <line class="cls-6" x1="222.05" y1="149.52" x2="232.76" y2="127.09" stroke="url(#band4)" stroke-width="2" filter="url(#glow)"/>
  <line class="cls-6" x1="270.26" y1="87.11" x2="232.16" y2="128.34" stroke="url(#band3)" stroke-width="2" filter="url(#glow)"/>
  <line class="cls-6" x1="238.45" y1="75.26" x2="232.39" y2="126.79" stroke="url(#band2)" stroke-width="2" filter="url(#glow)"/>
  <line class="cls-6" x1="271.1" y1="87.11" x2="238.37" y2="75.94" stroke="url(#band3)" stroke-width="2" filter="url(#glow)"/>
  <line class="cls-6" x1="248.8" y1="24.88" x2="270.69" y2="88.08" stroke="url(#band5)" stroke-width="2" filter="url(#glow)"/>
  <line class="cls-6" x1="232.94" y1="127.09" x2="269.53" y2="129.32" stroke="url(#band7)" stroke-width="2" filter="url(#glow)"/>
  <line class="cls-6" x1="182.76" y1="139.39" x2="222.05" y2="149.52" stroke="url(#band5)" stroke-width="2" filter="url(#glow)"/>
  <line class="cls-6" x1="4.5" y1="109.53" x2="27.78" y2="57.16" stroke="url(#band7)" stroke-width="2" filter="url(#glow)"/>
  <line class="cls-6" x1="97.76" y1="15.17" x2="27.78" y2="57.16" stroke="url(#band3)" stroke-width="2" filter="url(#glow)"/>
  <line class="cls-6" x1="87.76" y1="222.18" x2="102.76" y2="193.49" stroke="url(#band3)" stroke-width="2" filter="url(#glow)"/>
  <line class="cls-6" x1="136.2" y1="190.99" x2="102.76" y2="193.49" stroke="url(#band6)" stroke-width="2" filter="url(#glow)"/>
  <line class="cls-6" x1="167.76" y1="214.68" x2="135.26" y2="190.99" stroke="url(#band7)" stroke-width="2" filter="url(#glow)"/>
  <line class="cls-6" x1="122.76" y1="159.62" x2="135.26" y2="190.99" stroke="url(#band5)" stroke-width="2" filter="url(#glow)"/>
  <line class="cls-6" x1="167.76" y1="173.44" x2="135.26" y2="190.99" stroke="url(#band7)" stroke-width="2" filter="url(#glow)"/>
  <line class="cls-6" x1="87.76" y1="222.18" x2="135.26" y2="191.55" stroke="url(#band3)" stroke-width="2" filter="url(#glow)"/>
  <line class="cls-6" x1="138.7" y1="224.68" x2="135.26" y2="191.55" stroke="url(#band2)" stroke-width="2" filter="url(#glow)"/>
  <line class="cls-6" x1="72.76" y1="157.16" x2="102.47" y2="194.05" stroke="url(#band3)" stroke-width="2" filter="url(#glow)"/>
  <line class="cls-6" x1="122.76" y1="159.62" x2="72.76" y2="157.16" stroke="url(#band5)" stroke-width="2" filter="url(#glow)"/>
  <line class="cls-6" x1="105.26" y1="119.26" x2="72.76" y2="157.16" stroke="url(#band6)" stroke-width="2" filter="url(#glow)"/>
  <line class="cls-6" x1="75.26" y1="119.26" x2="72.76" y2="157.16" stroke="url(#band5)" stroke-width="2" filter="url(#glow)"/>
  <line class="cls-6" x1="45.55" y1="134.39" x2="73.3" y2="157.83" stroke="url(#band5)" stroke-width="2" filter="url(#glow)"/>
  <line class="cls-6" x1="43.05" y1="193.49" x2="73.04" y2="156.83" stroke="url(#band2)" stroke-width="2" filter="url(#glow)"/>
  <line class="cls-6" x1="102.47" y1="194.05" x2="43.05" y2="193.49" stroke="url(#band5)" stroke-width="2" filter="url(#glow)"/>
  <line class="cls-6" x1="43.05" y1="89.61" x2="45.55" y2="134.39" stroke="url(#band4)" stroke-width="2" filter="url(#glow)"/>
  <line class="cls-6" x1="75.26" y1="119.26" x2="43.05" y2="89.61" stroke="url(#band5)" stroke-width="2" filter="url(#glow)"/>
  <line class="cls-6" x1="82.76" y1="75.26" x2="43.46" y2="89.99" stroke="url(#band2)" stroke-width="2" filter="url(#glow)"/>
  <line class="cls-6" x1="4.5" y1="109.53" x2="43.46" y2="89.99" stroke="url(#band7)" stroke-width="2" filter="url(#glow)"/>
  <line class="cls-6" x1="46.19" y1="134.39" x2="17.52" y2="157.16" stroke="url(#band5)" stroke-width="2" filter="url(#glow)"/>
  <line class="cls-6" x1="4.5" y1="109.53" x2="45.55" y2="134.22" stroke="url(#band7)" stroke-width="2" filter="url(#glow)"/>
  <line class="cls-6" x1="75.26" y1="118.81" x2="46.19" y2="134.39" stroke="url(#band5)" stroke-width="2" filter="url(#glow)"/>
  <line class="cls-6" x1="43.05" y1="193.77" x2="45.98" y2="134.85" stroke="url(#band2)" stroke-width="2" filter="url(#glow)"/>
  <line class="cls-6" x1="82.76" y1="75.26" x2="75.26" y2="118.81" stroke="url(#band2)" stroke-width="2" filter="url(#glow)"/>
  <line class="cls-6" x1="105.26" y1="119.26" x2="82.76" y2="75.26" stroke="url(#band6)" stroke-width="2" filter="url(#glow)"/>
  <line class="cls-6" x1="136.2" y1="87.11" x2="82.76" y2="75.26" stroke="url(#band4)" stroke-width="2" filter="url(#glow)"/>
  <line class="cls-6" x1="110.26" y1="42.34" x2="136.33" y2="87.74" stroke="url(#band2)" stroke-width="2" filter="url(#glow)"/>
  <line class="cls-6" x1="56.82" y1="52.16" x2="98.5" y2="15" stroke="url(#band4)" stroke-width="2" filter="url(#glow)"/>
  <line class="cls-6" x1="27.78" y1="57.16" x2="57.3" y2="52.86" stroke="url(#band7)" stroke-width="2" filter="url(#glow)"/>
  <line class="cls-6" x1="43.05" y1="89.45" x2="57.3" y2="52.16" stroke="url(#band4)" stroke-width="2" filter="url(#glow)"/>
  <line class="cls-6" x1="110.88" y1="42.34" x2="56.82" y2="52.16" stroke="url(#band2)" stroke-width="2" filter="url(#glow)"/>
  <line class="cls-6" x1="97.46" y1="15.17" x2="110.88" y2="42.34" stroke="url(#band3)" stroke-width="2" filter="url(#glow)"/>
  <line class="cls-6" x1="82.76" y1="74.51" x2="56.82" y2="52.93" stroke="url(#band2)" stroke-width="2" filter="url(#glow)"/>
  <line class="cls-6" x1="43.05" y1="90.19" x2="28.41" y2="57.06" stroke="url(#band4)" stroke-width="2" filter="url(#glow)"/>
  <line class="cls-6" x1="177.76" y1="72.5" x2="237.76" y2="75.26" stroke="url(#band6)" stroke-width="2" filter="url(#glow)"/>
  <line class="cls-6" x1="139.48" y1="45.56" x2="177.76" y2="72.5" stroke="url(#band1)" stroke-width="2" filter="url(#glow)"/>
  <line class="cls-6" x1="270.26" y1="129.59" x2="308.1" y2="123.94" stroke="url(#band7)" stroke-width="2" filter="url(#glow)"/>
</svg>
