<?xml version="1.0" encoding="UTF-8"?>
<svg width="512" height="512" viewBox="0 0 512 512" xmlns="http://www.w3.org/2000/svg">
  <!-- Definitions for gradients, filters, and patterns -->
  <defs>
    <!-- Main gradient from greenish-blue to purple -->
    <linearGradient id="brainGradient" x1="0%" y1="0%" x2="100%" y2="100%">
      <stop offset="0%" style="stop-color:#00E5CC;stop-opacity:1" />
      <stop offset="25%" style="stop-color:#00C4E5;stop-opacity:1" />
      <stop offset="50%" style="stop-color:#4A90E2;stop-opacity:1" />
      <stop offset="75%" style="stop-color:#7B68EE;stop-opacity:1" />
      <stop offset="100%" style="stop-color:#9932CC;stop-opacity:1" />
    </linearGradient>
    
    <!-- Secondary gradient for variation -->
    <linearGradient id="brainGradient2" x1="100%" y1="0%" x2="0%" y2="100%">
      <stop offset="0%" style="stop-color:#1E90FF;stop-opacity:1" />
      <stop offset="50%" style="stop-color:#8A2BE2;stop-opacity:1" />
      <stop offset="100%" style="stop-color:#4B0082;stop-opacity:1" />
    </linearGradient>
    
    <!-- Tertiary gradient -->
    <linearGradient id="brainGradient3" x1="50%" y1="0%" x2="50%" y2="100%">
      <stop offset="0%" style="stop-color:#00CED1;stop-opacity:1" />
      <stop offset="50%" style="stop-color:#6A5ACD;stop-opacity:1" />
      <stop offset="100%" style="stop-color:#8B008B;stop-opacity:1" />
    </linearGradient>
    
    <!-- Glow filter -->
    <filter id="glow" x="-50%" y="-50%" width="200%" height="200%">
      <feGaussianBlur stdDeviation="3" result="coloredBlur"/>
      <feMerge> 
        <feMergeNode in="coloredBlur"/>
        <feMergeNode in="SourceGraphic"/>
      </feMerge>
    </filter>
    
    <!-- Stronger outer glow -->
    <filter id="outerGlow" x="-100%" y="-100%" width="300%" height="300%">
      <feGaussianBlur stdDeviation="4" result="coloredBlur"/>
      <feMerge> 
        <feMergeNode in="coloredBlur"/>
        <feMergeNode in="SourceGraphic"/>
      </feMerge>
    </filter>
  </defs>
  
  <!-- Dark background -->
  <rect width="512" height="512" fill="#0D0D0D"/>
  
  <!-- Brain network structure -->
  <g filter="url(#outerGlow)">
    
    <!-- Main cerebrum outline connections -->
    <!-- Top curve of brain -->
    <line x1="140" y1="80" x2="180" y2="75" stroke="url(#brainGradient)" stroke-width="2" opacity="0.9"/>
    <line x1="180" y1="75" x2="220" y2="70" stroke="url(#brainGradient)" stroke-width="2" opacity="0.9"/>
    <line x1="220" y1="70" x2="260" y2="72" stroke="url(#brainGradient)" stroke-width="2" opacity="0.9"/>
    <line x1="260" y1="72" x2="300" y2="78" stroke="url(#brainGradient)" stroke-width="2" opacity="0.9"/>
    <line x1="300" y1="78" x2="340" y2="88" stroke="url(#brainGradient)" stroke-width="2" opacity="0.9"/>
    <line x1="340" y1="88" x2="375" y2="105" stroke="url(#brainGradient)" stroke-width="2" opacity="0.9"/>
    
    <!-- Frontal lobe -->
    <line x1="120" y1="95" x2="140" y2="80" stroke="url(#brainGradient2)" stroke-width="2" opacity="0.85"/>
    <line x1="110" y1="115" x2="120" y2="95" stroke="url(#brainGradient2)" stroke-width="2" opacity="0.85"/>
    <line x1="105" y1="140" x2="110" y2="115" stroke="url(#brainGradient2)" stroke-width="2" opacity="0.85"/>
    <line x1="108" y1="165" x2="105" y2="140" stroke="url(#brainGradient2)" stroke-width="2" opacity="0.85"/>
    
    <!-- Temporal lobe curve -->
    <line x1="108" y1="165" x2="115" y2="190" stroke="url(#brainGradient3)" stroke-width="2" opacity="0.8"/>
    <line x1="115" y1="190" x2="125" y2="215" stroke="url(#brainGradient3)" stroke-width="2" opacity="0.8"/>
    <line x1="125" y1="215" x2="140" y2="235" stroke="url(#brainGradient3)" stroke-width="2" opacity="0.8"/>
    <line x1="140" y1="235" x2="160" y2="250" stroke="url(#brainGradient3)" stroke-width="2" opacity="0.8"/>
    
    <!-- Back of brain -->
    <line x1="375" y1="105" x2="395" y2="130" stroke="url(#brainGradient)" stroke-width="2" opacity="0.9"/>
    <line x1="395" y1="130" x2="405" y2="160" stroke="url(#brainGradient)" stroke-width="2" opacity="0.9"/>
    <line x1="405" y1="160" x2="400" y2="190" stroke="url(#brainGradient)" stroke-width="2" opacity="0.9"/>
    <line x1="400" y1="190" x2="390" y2="220" stroke="url(#brainGradient)" stroke-width="2" opacity="0.9"/>
    <line x1="390" y1="220" x2="375" y2="245" stroke="url(#brainGradient)" stroke-width="2" opacity="0.9"/>
    
    <!-- Brain stem -->
    <line x1="160" y1="250" x2="180" y2="275" stroke="url(#brainGradient2)" stroke-width="2" opacity="0.8"/>
    <line x1="180" y1="275" x2="200" y2="300" stroke="url(#brainGradient2)" stroke-width="2" opacity="0.8"/>
    <line x1="200" y1="300" x2="220" y2="325" stroke="url(#brainGradient2)" stroke-width="2" opacity="0.8"/>
    <line x1="220" y1="325" x2="240" y2="350" stroke="url(#brainGradient2)" stroke-width="2" opacity="0.8"/>
    <line x1="240" y1="350" x2="255" y2="375" stroke="url(#brainGradient2)" stroke-width="2" opacity="0.8"/>
    
    <!-- Spinal cord connection -->
    <line x1="255" y1="375" x2="260" y2="400" stroke="url(#brainGradient3)" stroke-width="2" opacity="0.7"/>
    <line x1="260" y1="400" x2="262" y2="420" stroke="url(#brainGradient3)" stroke-width="2" opacity="0.7"/>
    
    <!-- Connect brain stem to back -->
    <line x1="375" y1="245" x2="320" y2="265" stroke="url(#brainGradient)" stroke-width="2" opacity="0.85"/>
    <line x1="320" y1="265" x2="280" y2="280" stroke="url(#brainGradient)" stroke-width="2" opacity="0.85"/>
    <line x1="280" y1="280" x2="240" y2="290" stroke="url(#brainGradient)" stroke-width="2" opacity="0.85"/>
    <line x1="240" y1="290" x2="200" y2="295" stroke="url(#brainGradient)" stroke-width="2" opacity="0.85"/>
    <line x1="200" y1="295" x2="160" y2="285" stroke="url(#brainGradient)" stroke-width="2" opacity="0.85"/>
    <line x1="160" y1="285" x2="160" y2="250" stroke="url(#brainGradient3)" stroke-width="2" opacity="0.85"/>
    
    <!-- Internal triangulated network -->
    <!-- Layer 1 - Top internal connections -->
    <line x1="180" y1="100" x2="220" y2="105" stroke="url(#brainGradient)" stroke-width="2" opacity="0.7"/>
    <line x1="220" y1="105" x2="260" y2="110" stroke="url(#brainGradient)" stroke-width="2" opacity="0.7"/>
    <line x1="260" y1="110" x2="300" y2="115" stroke="url(#brainGradient)" stroke-width="2" opacity="0.7"/>
    <line x1="300" y1="115" x2="340" y2="125" stroke="url(#brainGradient)" stroke-width="2" opacity="0.7"/>
    
    <!-- Cross connections -->
    <line x1="180" y1="100" x2="240" y2="140" stroke="url(#brainGradient2)" stroke-width="2" opacity="0.6"/>
    <line x1="220" y1="105" x2="280" y2="145" stroke="url(#brainGradient2)" stroke-width="2" opacity="0.6"/>
    <line x1="260" y1="110" x2="320" y2="150" stroke="url(#brainGradient2)" stroke-width="2" opacity="0.6"/>
    <line x1="300" y1="115" x2="360" y2="155" stroke="url(#brainGradient2)" stroke-width="2" opacity="0.6"/>
    
    <!-- Layer 2 - Middle internal connections -->
    <line x1="150" y1="140" x2="240" y2="140" stroke="url(#brainGradient3)" stroke-width="2" opacity="0.65"/>
    <line x1="240" y1="140" x2="320" y2="150" stroke="url(#brainGradient3)" stroke-width="2" opacity="0.65"/>
    <line x1="320" y1="150" x2="360" y2="165" stroke="url(#brainGradient3)" stroke-width="2" opacity="0.65"/>
    
    <!-- Diagonal internal connections -->
    <line x1="150" y1="140" x2="200" y2="180" stroke="url(#brainGradient)" stroke-width="2" opacity="0.6"/>
    <line x1="240" y1="140" x2="290" y2="180" stroke="url(#brainGradient)" stroke-width="2" opacity="0.6"/>
    <line x1="320" y1="150" x2="350" y2="190" stroke="url(#brainGradient)" stroke-width="2" opacity="0.6"/>
    
    <!-- Layer 3 - Lower internal connections -->
    <line x1="160" y1="180" x2="200" y2="180" stroke="url(#brainGradient2)" stroke-width="2" opacity="0.65"/>
    <line x1="200" y1="180" x2="250" y2="185" stroke="url(#brainGradient2)" stroke-width="2" opacity="0.65"/>
    <line x1="250" y1="185" x2="300" y2="190" stroke="url(#brainGradient2)" stroke-width="2" opacity="0.65"/>
    <line x1="300" y1="190" x2="340" y2="200" stroke="url(#brainGradient2)" stroke-width="2" opacity="0.65"/>
    
    <!-- Complex internal triangulations -->
    <line x1="160" y1="180" x2="250" y2="220" stroke="url(#brainGradient3)" stroke-width="2" opacity="0.55"/>
    <line x1="200" y1="180" x2="290" y2="225" stroke="url(#brainGradient3)" stroke-width="2" opacity="0.55"/>
    <line x1="250" y1="185" x2="330" y2="230" stroke="url(#brainGradient3)" stroke-width="2" opacity="0.55"/>
    
    <!-- Frontal lobe internal network -->
    <line x1="130" y1="120" x2="160" y2="140" stroke="url(#brainGradient)" stroke-width="2" opacity="0.6"/>
    <line x1="140" y1="130" x2="170" y2="150" stroke="url(#brainGradient)" stroke-width="2" opacity="0.6"/>
    <line x1="130" y1="160" x2="160" y2="180" stroke="url(#brainGradient2)" stroke-width="2" opacity="0.6"/>
    <line x1="140" y1="170" x2="170" y2="190" stroke="url(#brainGradient2)" stroke-width="2" opacity="0.6"/>
    
    <!-- Temporal area internal connections -->
    <line x1="140" y1="200" x2="180" y2="200" stroke="url(#brainGradient3)" stroke-width="2" opacity="0.6"/>
    <line x1="150" y1="220" x2="190" y2="220" stroke="url(#brainGradient3)" stroke-width="2" opacity="0.6"/>
    <line x1="140" y1="200" x2="170" y2="240" stroke="url(#brainGradient)" stroke-width="2" opacity="0.55"/>
    <line x1="180" y1="200" x2="200" y2="240" stroke="url(#brainGradient)" stroke-width="2" opacity="0.55"/>
    
    <!-- Brain stem internal structure -->
    <line x1="200" y1="280" x2="220" y2="300" stroke="url(#brainGradient2)" stroke-width="2" opacity="0.6"/>
    <line x1="220" y1="300" x2="240" y2="320" stroke="url(#brainGradient2)" stroke-width="2" opacity="0.6"/>
    <line x1="210" y1="310" x2="230" y2="330" stroke="url(#brainGradient3)" stroke-width="2" opacity="0.6"/>
    <line x1="200" y1="280" x2="240" y2="320" stroke="url(#brainGradient)" stroke-width="2" opacity="0.5"/>
    
    <!-- Additional network complexity -->
    <line x1="180" y1="120" x2="300" y2="160" stroke="url(#brainGradient)" stroke-width="2" opacity="0.4"/>
    <line x1="160" y1="160" x2="320" y2="200" stroke="url(#brainGradient2)" stroke-width="2" opacity="0.4"/>
    <line x1="180" y1="200" x2="340" y2="220" stroke="url(#brainGradient3)" stroke-width="2" opacity="0.4"/>
    
    <!-- More triangulations -->
    <line x1="220" y1="130" x2="280" y2="170" stroke="url(#brainGradient)" stroke-width="2" opacity="0.5"/>
    <line x1="260" y1="140" x2="320" y2="180" stroke="url(#brainGradient2)" stroke-width="2" opacity="0.5"/>
    <line x1="240" y1="160" x2="300" y2="200" stroke="url(#brainGradient3)" stroke-width="2" opacity="0.5"/>
    
    <!-- Network vertices (slightly larger than connection thickness) -->
    <!-- Outer vertices -->
    <circle cx="140" cy="80" r="2.5" fill="url(#brainGradient)" filter="url(#glow)"/>
    <circle cx="180" cy="75" r="2.5" fill="url(#brainGradient)" filter="url(#glow)"/>
    <circle cx="220" cy="70" r="2.5" fill="url(#brainGradient)" filter="url(#glow)"/>
    <circle cx="260" cy="72" r="2.5" fill="url(#brainGradient)" filter="url(#glow)"/>
    <circle cx="300" cy="78" r="2.5" fill="url(#brainGradient)" filter="url(#glow)"/>
    <circle cx="340" cy="88" r="2.5" fill="url(#brainGradient)" filter="url(#glow)"/>
    <circle cx="375" cy="105" r="2.5" fill="url(#brainGradient)" filter="url(#glow)"/>
    
    <!-- Frontal lobe vertices -->
    <circle cx="120" cy="95" r="2.5" fill="url(#brainGradient2)" filter="url(#glow)"/>
    <circle cx="110" cy="115" r="2.5" fill="url(#brainGradient2)" filter="url(#glow)"/>
    <circle cx="105" cy="140" r="2.5" fill="url(#brainGradient2)" filter="url(#glow)"/>
    <circle cx="108" cy="165" r="2.5" fill="url(#brainGradient2)" filter="url(#glow)"/>
    
    <!-- Temporal vertices -->
    <circle cx="115" cy="190" r="2.5" fill="url(#brainGradient3)" filter="url(#glow)"/>
    <circle cx="125" cy="215" r="2.5" fill="url(#brainGradient3)" filter="url(#glow)"/>
    <circle cx="140" cy="235" r="2.5" fill="url(#brainGradient3)" filter="url(#glow)"/>
    <circle cx="160" cy="250" r="2.5" fill="url(#brainGradient3)" filter="url(#glow)"/>
    
    <!-- Back vertices -->
    <circle cx="395" cy="130" r="2.5" fill="url(#brainGradient)" filter="url(#glow)"/>
    <circle cx="405" cy="160" r="2.5" fill="url(#brainGradient)" filter="url(#glow)"/>
    <circle cx="400" cy="190" r="2.5" fill="url(#brainGradient)" filter="url(#glow)"/>
    <circle cx="390" cy="220" r="2.5" fill="url(#brainGradient)" filter="url(#glow)"/>
    <circle cx="375" cy="245" r="2.5" fill="url(#brainGradient)" filter="url(#glow)"/>
    
    <!-- Brain stem vertices -->
    <circle cx="180" cy="275" r="2.5" fill="url(#brainGradient2)" filter="url(#glow)"/>
    <circle cx="200" cy="300" r="2.5" fill="url(#brainGradient2)" filter="url(#glow)"/>
    <circle cx="220" cy="325" r="2.5" fill="url(#brainGradient2)" filter="url(#glow)"/>
    <circle cx="240" cy="350" r="2.5" fill="url(#brainGradient2)" filter="url(#glow)"/>
    <circle cx="255" cy="375" r="2.5" fill="url(#brainGradient2)" filter="url(#glow)"/>
    <circle cx="260" cy="400" r="2.5" fill="url(#brainGradient3)" filter="url(#glow)"/>
    <circle cx="262" cy="420" r="2.5" fill="url(#brainGradient3)" filter="url(#glow)"/>
    
    <!-- Internal vertices -->
    <circle cx="180" cy="100" r="2.5" fill="url(#brainGradient)" filter="url(#glow)" opacity="0.8"/>
    <circle cx="220" cy="105" r="2.5" fill="url(#brainGradient)" filter="url(#glow)" opacity="0.8"/>
    <circle cx="260" cy="110" r="2.5" fill="url(#brainGradient)" filter="url(#glow)" opacity="0.8"/>
    <circle cx="300" cy="115" r="2.5" fill="url(#brainGradient)" filter="url(#glow)" opacity="0.8"/>
    <circle cx="340" cy="125" r="2.5" fill="url(#brainGradient)" filter="url(#glow)" opacity="0.8"/>
    
    <circle cx="240" cy="140" r="2.5" fill="url(#brainGradient2)" filter="url(#glow)" opacity="0.7"/>
    <circle cx="320" cy="150" r="2.5" fill="url(#brainGradient2)" filter="url(#glow)" opacity="0.7"/>
    <circle cx="360" cy="165" r="2.5" fill="url(#brainGradient2)" filter="url(#glow)" opacity="0.7"/>
    
    <circle cx="200" cy="180" r="2.5" fill="url(#brainGradient3)" filter="url(#glow)" opacity="0.75"/>
    <circle cx="250" cy="185" r="2.5" fill="url(#brainGradient3)" filter="url(#glow)" opacity="0.75"/>
    <circle cx="300" cy="190" r="2.5" fill="url(#brainGradient3)" filter="url(#glow)" opacity="0.75"/>
    <circle cx="340" cy="200" r="2.5" fill="url(#brainGradient3)" filter="url(#glow)" opacity="0.75"/>
    
    <!-- Additional internal vertices for complexity -->
    <circle cx="170" cy="150" r="2.5" fill="url(#brainGradient)" filter="url(#glow)" opacity="0.6"/>
    <circle cx="210" cy="160" r="2.5" fill="url(#brainGradient2)" filter="url(#glow)" opacity="0.6"/>
    <circle cx="270" cy="170" r="2.5" fill="url(#brainGradient3)" filter="url(#glow)" opacity="0.6"/>
    <circle cx="320" cy="180" r="2.5" fill="url(#brainGradient)" filter="url(#glow)" opacity="0.6"/>
    
    <circle cx="180" cy="200" r="2.5" fill="url(#brainGradient2)" filter="url(#glow)" opacity="0.65"/>
    <circle cx="220" cy="210" r="2.5" fill="url(#brainGradient3)" filter="url(#glow)" opacity="0.65"/>
    <circle cx="280" cy="220" r="2.5" fill="url(#brainGradient)" filter="url(#glow)" opacity="0.65"/>
    
  </g>
</svg>
