<?xml version="1.0" encoding="UTF-8"?>
<svg width="64" height="64" viewBox="0 0 512 512" xmlns="http://www.w3.org/2000/svg">
  <!-- Icon version - very simplified for favicons and small uses -->
  <defs>
    <!-- Simplified gradient -->
    <linearGradient id="iconGradient" x1="0%" y1="0%" x2="100%" y2="100%">
      <stop offset="0%" style="stop-color:#00E5CC;stop-opacity:1" />
      <stop offset="50%" style="stop-color:#7B68EE;stop-opacity:1" />
      <stop offset="100%" style="stop-color:#9932CC;stop-opacity:1" />
    </linearGradient>
    
    <!-- Strong glow for icon -->
    <filter id="iconGlow" x="-100%" y="-100%" width="300%" height="300%">
      <feGaussianBlur stdDeviation="4" result="coloredBlur"/>
      <feMerge> 
        <feMergeNode in="coloredBlur"/>
        <feMergeNode in="SourceGraphic"/>
      </feMerge>
    </filter>
  </defs>
  
  <!-- Dark background -->
  <rect width="512" height="512" fill="#0D0D0D" rx="64"/>
  
  <!-- Minimal brain icon -->
  <g filter="url(#iconGlow)">
    
    <!-- Brain outline - very simplified -->
    <path d="M140,80 Q200,60 300,78 Q380,100 400,180 Q390,250 340,300 L260,400 Q250,420 262,420 L240,350 Q120,280 110,160 Q105,100 140,80 Z" 
          fill="none" 
          stroke="url(#iconGradient)" 
          stroke-width="6" 
          opacity="1"/>
    
    <!-- Key network connections -->
    <line x1="200" y1="120" x2="300" y2="180" stroke="url(#iconGradient)" stroke-width="4" opacity="0.8"/>
    <line x1="160" y1="160" x2="340" y2="200" stroke="url(#iconGradient)" stroke-width="4" opacity="0.8"/>
    <line x1="200" y1="220" x2="300" y2="260" stroke="url(#iconGradient)" stroke-width="4" opacity="0.8"/>
    
    <!-- Brain stem -->
    <line x1="250" y1="350" x2="260" y2="400" stroke="url(#iconGradient)" stroke-width="6" opacity="1"/>
    
    <!-- Key nodes -->
    <circle cx="200" cy="120" r="6" fill="url(#iconGradient)"/>
    <circle cx="300" cy="150" r="6" fill="url(#iconGradient)"/>
    <circle cx="250" cy="200" r="6" fill="url(#iconGradient)"/>
    <circle cx="280" cy="250" r="6" fill="url(#iconGradient)"/>
    
    <!-- Central hub node -->
    <circle cx="256" cy="180" r="8" fill="url(#iconGradient)" opacity="0.9"/>
    
  </g>
</svg>
