<?xml version="1.0" encoding="UTF-8"?>
<svg width="128" height="128" viewBox="0 0 512 512" xmlns="http://www.w3.org/2000/svg">
  <!-- Small version - same design, optimized for small sizes -->
  <defs>
    <!-- Main gradient from greenish-blue to purple -->
    <linearGradient id="brainGradient" x1="0%" y1="0%" x2="100%" y2="100%">
      <stop offset="0%" style="stop-color:#00E5CC;stop-opacity:1" />
      <stop offset="25%" style="stop-color:#00C4E5;stop-opacity:1" />
      <stop offset="50%" style="stop-color:#4A90E2;stop-opacity:1" />
      <stop offset="75%" style="stop-color:#7B68EE;stop-opacity:1" />
      <stop offset="100%" style="stop-color:#9932CC;stop-opacity:1" />
    </linearGradient>
    
    <!-- Secondary gradient for variation -->
    <linearGradient id="brainGradient2" x1="100%" y1="0%" x2="0%" y2="100%">
      <stop offset="0%" style="stop-color:#1E90FF;stop-opacity:1" />
      <stop offset="50%" style="stop-color:#8A2BE2;stop-opacity:1" />
      <stop offset="100%" style="stop-color:#4B0082;stop-opacity:1" />
    </linearGradient>
    
    <!-- Tertiary gradient -->
    <linearGradient id="brainGradient3" x1="50%" y1="0%" x2="50%" y2="100%">
      <stop offset="0%" style="stop-color:#00CED1;stop-opacity:1" />
      <stop offset="50%" style="stop-color:#6A5ACD;stop-opacity:1" />
      <stop offset="100%" style="stop-color:#8B008B;stop-opacity:1" />
    </linearGradient>
    
    <!-- Glow filter for small size -->
    <filter id="glow" x="-50%" y="-50%" width="200%" height="200%">
      <feGaussianBlur stdDeviation="2" result="coloredBlur"/>
      <feMerge> 
        <feMergeNode in="coloredBlur"/>
        <feMergeNode in="SourceGraphic"/>
      </feMerge>
    </filter>
  </defs>
  
  <!-- Dark background -->
  <rect width="512" height="512" fill="#0D0D0D"/>
  
  <!-- Simplified brain network for small size -->
  <g filter="url(#glow)">
    
    <!-- Main brain outline - simplified -->
    <line x1="140" y1="80" x2="340" y2="88" stroke="url(#brainGradient)" stroke-width="3" opacity="1"/>
    <line x1="340" y1="88" x2="375" y2="105" stroke="url(#brainGradient)" stroke-width="3" opacity="1"/>
    <line x1="375" y1="105" x2="400" y2="190" stroke="url(#brainGradient)" stroke-width="3" opacity="1"/>
    <line x1="400" y1="190" x2="375" y2="245" stroke="url(#brainGradient)" stroke-width="3" opacity="1"/>
    <line x1="375" y1="245" x2="240" y2="350" stroke="url(#brainGradient)" stroke-width="3" opacity="1"/>
    <line x1="240" y1="350" x2="262" y2="420" stroke="url(#brainGradient2)" stroke-width="3" opacity="1"/>
    
    <!-- Frontal curve -->
    <line x1="140" y1="80" x2="110" y2="115" stroke="url(#brainGradient2)" stroke-width="3" opacity="1"/>
    <line x1="110" y1="115" x2="108" y2="165" stroke="url(#brainGradient2)" stroke-width="3" opacity="1"/>
    <line x1="108" y1="165" x2="160" y2="250" stroke="url(#brainGradient3)" stroke-width="3" opacity="1"/>
    <line x1="160" y1="250" x2="240" y2="350" stroke="url(#brainGradient3)" stroke-width="3" opacity="1"/>
    
    <!-- Key internal connections -->
    <line x1="180" y1="100" x2="320" y2="150" stroke="url(#brainGradient)" stroke-width="3" opacity="0.8"/>
    <line x1="150" y1="140" x2="350" y2="190" stroke="url(#brainGradient2)" stroke-width="3" opacity="0.8"/>
    <line x1="180" y1="200" x2="320" y2="230" stroke="url(#brainGradient3)" stroke-width="3" opacity="0.8"/>
    
    <!-- Cross connections for network effect -->
    <line x1="200" y1="120" x2="300" y2="200" stroke="url(#brainGradient)" stroke-width="3" opacity="0.6"/>
    <line x1="160" y1="160" x2="340" y2="180" stroke="url(#brainGradient2)" stroke-width="3" opacity="0.6"/>
    
    <!-- Key vertices - larger for small display -->
    <circle cx="140" cy="80" r="4" fill="url(#brainGradient)"/>
    <circle cx="340" cy="88" r="4" fill="url(#brainGradient)"/>
    <circle cx="375" cy="105" r="4" fill="url(#brainGradient)"/>
    <circle cx="400" cy="190" r="4" fill="url(#brainGradient)"/>
    <circle cx="375" cy="245" r="4" fill="url(#brainGradient)"/>
    <circle cx="240" cy="350" r="4" fill="url(#brainGradient2)"/>
    <circle cx="262" cy="420" r="4" fill="url(#brainGradient3)"/>
    
    <circle cx="110" cy="115" r="4" fill="url(#brainGradient2)"/>
    <circle cx="108" cy="165" r="4" fill="url(#brainGradient2)"/>
    <circle cx="160" cy="250" r="4" fill="url(#brainGradient3)"/>
    
    <!-- Internal key nodes -->
    <circle cx="220" cy="130" r="4" fill="url(#brainGradient)" opacity="0.9"/>
    <circle cx="280" cy="160" r="4" fill="url(#brainGradient2)" opacity="0.9"/>
    <circle cx="240" cy="200" r="4" fill="url(#brainGradient3)" opacity="0.9"/>
    
  </g>
</svg>
