<?xml version="1.0" encoding="UTF-8"?>
<svg width="512" height="512" viewBox="0 0 512 512" xmlns="http://www.w3.org/2000/svg">
  <defs>
    <linearGradient id="g1" x1="0%" y1="0%" x2="100%" y2="100%">
      <stop offset="0%" stop-color="#00E5CC"/>
      <stop offset="40%" stop-color="#4A90E2"/>
      <stop offset="100%" stop-color="#9932CC"/>
    </linearGradient>
    <linearGradient id="g2" x1="100%" y1="0%" x2="0%" y2="100%">
      <stop offset="0%" stop-color="#00C4E5"/>
      <stop offset="60%" stop-color="#7B68EE"/>
      <stop offset="100%" stop-color="#8B008B"/>
    </linearGradient>
    <filter id="glow" x="-80%" y="-80%" width="260%" height="260%">
      <feGaussianBlur stdDeviation="3" result="b"/>
      <feMerge>
        <feMergeNode in="b"/>
        <feMergeNode in="SourceGraphic"/>
      </feMerge>
    </filter>
  </defs>

  <rect width="512" height="512" fill="#0D0D0D"/>

  <!-- Stylized brain silhouette as guide (invisible fill, faint stroke for structure) -->
  <path d="M140,95 C180,65 240,60 300,78 C355,93 395,120 410,165 C420,195 415,230 395,260 C380,285 350,305 320,318 C295,330 270,338 250,348 C235,355 225,365 215,382 C205,400 200,420 190,430 C178,442 165,438 160,418 C156,403 162,380 158,360 C152,330 125,318 112,295 C98,270 98,235 108,205 C120,170 130,135 140,95 Z" fill="none" stroke="#151515" stroke-width="2"/>

  <!-- Regions: Frontal (F), Parietal (P), Temporal (T), Occipital (O), Cingulate/Medial (C), Brainstem (S) -->
  <g id="regions" filter="url(#glow)" stroke-linecap="round" stroke-linejoin="round">

    <!-- Frontal lobe gyri-like ribbons -->
    <g id="frontal" stroke="url(#g1)" stroke-width="2">
      <path d="M130,130 C165,110 205,108 240,118" fill="none"/>
      <path d="M125,150 C165,128 215,125 255,140" fill="none" opacity="0.9"/>
      <path d="M120,170 C165,150 220,152 265,168" fill="none" opacity="0.85"/>
      <path d="M118,190 C165,172 225,175 272,192" fill="none" opacity="0.8"/>
      <!-- short sulcal crosslinks -->
      <path d="M150,140 L165,170 L185,150 L205,175" fill="none" opacity="0.6"/>
      <path d="M135,160 L155,182 L175,162" fill="none" opacity="0.55"/>
    </g>

    <!-- Parietal lobe meshes (tri/hex-like) -->
    <g id="parietal" stroke="url(#g2)" stroke-width="2">
      <polyline points="270,160 300,150 330,160 350,185 325,200 295,192 270,175 270,160" fill="none"/>
      <polyline points="285,178 310,168 335,178 343,195 320,205 295,198 285,178" fill="none" opacity="0.85"/>
      <polyline points="260,185 285,205 315,210 340,205 360,220 335,235 305,238 275,225 260,205 260,185" fill="none" opacity="0.8"/>
      <!-- internal diagonals to evoke triangulation -->
      <path d="M270,160 L335,178 L305,238 L270,175 Z" fill="none" opacity="0.5"/>
    </g>

    <!-- Temporal lobe arcs and lattice -->
    <g id="temporal" stroke="url(#g1)" stroke-width="2">
      <path d="M150,210 C180,220 210,230 235,250" fill="none"/>
      <path d="M145,230 C178,238 208,248 232,268" fill="none" opacity="0.9"/>
      <path d="M148,250 C178,257 205,270 225,290" fill="none" opacity="0.8"/>
      <!-- lattice lines -->
      <path d="M165,220 L190,240 L215,260" fill="none" opacity="0.6"/>
      <path d="M160,240 L185,255 L210,275" fill="none" opacity="0.55"/>
    </g>

    <!-- Occipital structured fan -->
    <g id="occipital" stroke="url(#g2)" stroke-width="2">
      <path d="M360,165 C375,180 385,198 388,215" fill="none"/>
      <path d="M350,175 C368,190 378,208 380,225" fill="none" opacity="0.9"/>
      <path d="M340,188 C360,203 370,218 372,235" fill="none" opacity="0.8"/>
      <!-- radial cross braces -->
      <path d="M345,190 L372,235" fill="none" opacity="0.55"/>
      <path d="M355,180 L380,225" fill="none" opacity="0.55"/>
    </g>

    <!-- Cingulate/medial ribbon along midline -->
    <g id="cingulate" stroke="url(#g1)" stroke-width="2">
      <path d="M200,140 C225,135 255,135 285,142" fill="none"/>
      <path d="M195,155 C225,148 258,148 288,156" fill="none" opacity="0.9"/>
      <path d="M192,170 C225,162 260,162 292,171" fill="none" opacity="0.85"/>
      <!-- short connectors to parietal mesh -->
      <path d="M245,150 L300,150" fill="none" opacity="0.6"/>
      <path d="M240,165 L295,170" fill="none" opacity="0.55"/>
    </g>

    <!-- Brainstem and cerebellar peduncle stylization -->
    <g id="brainstem" stroke="url(#g2)" stroke-width="2">
      <path d="M180,270 C195,290 210,310 225,335" fill="none"/>
      <path d="M225,335 C235,353 242,372 250,395" fill="none"/>
      <path d="M250,395 C253,405 257,415 262,425" fill="none"/>
      <!-- ventral lattice -->
      <path d="M190,285 L205,305 L220,325" fill="none" opacity="0.6"/>
      <path d="M200,300 L215,320 L230,340" fill="none" opacity="0.55"/>
    </g>

    <!-- Regional vertex markers (subtle) -->
    <g id="nodes" fill="#00E5CC">
      <circle cx="165" cy="140" r="2.5"/>
      <circle cx="210" cy="150" r="2.5"/>
      <circle cx="255" cy="160" r="2.5"/>
      <circle cx="300" cy="170" r="2.5"/>
      <circle cx="340" cy="188" r="2.5"/>
      <circle cx="220" cy="205" r="2.5"/>
      <circle cx="185" cy="235" r="2.5"/>
      <circle cx="230" cy="265" r="2.5"/>
      <circle cx="270" cy="205" r="2.5"/>
      <circle cx="310" cy="205" r="2.5"/>
    </g>

    <!-- Fine triangulation overlays to hint gyri patterns -->
    <g id="triOver" stroke-width="1.8" stroke="url(#g1)" opacity="0.45">
      <path d="M135,150 L170,140 L205,175 L170,185 Z" fill="none"/>
      <path d="M205,175 L245,160 L275,185 L240,200 Z" fill="none"/>
      <path d="M275,185 L305,170 L335,190 L305,210 Z" fill="none"/>
      <path d="M160,210 L190,230 L220,250 L190,260 Z" fill="none"/>
    </g>

  </g>
</svg>
